<svg xmlns="http://www.w3.org/2000/svg" xmlns:xlink="http://www.w3.org/1999/xlink" version="1.1" id="Layer_1" x="0px" y="0px" viewBox="0 0 30.7 30.7" xml:space="preserve" enable-background="new 0 0 30.7 30.7">
  <style type="text/css">
    
	.st0{fill:#ffffff;}

  </style>
  <path class="st0" d="M22.8 11.4c-0.2 0.1-0.5 0.1-0.7-0.2 -0.1-0.2-0.1-0.5 0.2-0.7L30 5.8c0.2-0.1 0.5-0.1 0.7 0.2 0 0.1 0.1 0.2 0.1 0.3h0v18.2c0 0.2-0.1 0.3-0.2 0.4l-8.6 5.7c-0.1 0.1-0.3 0.1-0.5 0v0L9.2 24.9l-8.4 5.6c-0.2 0.1-0.5 0.1-0.7-0.1 -0.1-0.1-0.1-0.2-0.1-0.3l0-18c0-0.2 0.1-0.3 0.2-0.4l0 0 6.7-4c0.2-0.1 0.5-0.1 0.7 0.2 0.1 0.2 0.1 0.5-0.2 0.7l-6.5 3.8 0 16.9L8.9 24l0 0c0.1-0.1 0.3-0.1 0.5 0l12.2 5.6 8.2-5.4V7.1L22.8 11.4z"/>
  <path class="st0" d="M19.5 2.6c-1-1-2.5-1.7-4.1-1.7 -1.6 0-3 0.6-4.1 1.7 -1 1-1.7 2.5-1.7 4.1 0 1.7 1 3.7 2.2 5.7 1.1 1.8 2.5 3.5 3.5 4.8 1-1.3 2.4-3 3.5-4.8 1.2-2 2.2-4 2.2-5.7C21.2 5.1 20.5 3.7 19.5 2.6L19.5 2.6zM15.4 0c1.8 0 3.5 0.8 4.7 2l0 0 0 0c1.2 1.2 2 2.9 2 4.7 0 1.9-1 4.1-2.4 6.2 -1.3 2.1-2.9 4-4 5.3 -0.2 0.2-0.5 0.2-0.7 0.1 0 0-0.1-0.1-0.1-0.1 -1.1-1.3-2.6-3.3-3.9-5.3 -1.3-2.1-2.4-4.3-2.4-6.2 0-1.8 0.8-3.5 2-4.7C11.9 0.8 13.6 0 15.4 0z"/>
  <path class="st0" d="M16.8 5.3L16.8 5.3c-0.3-0.3-0.8-0.6-1.4-0.6 -0.5 0-1 0.2-1.4 0.6l0 0c-0.3 0.3-0.6 0.8-0.6 1.4 0 0.5 0.2 1 0.6 1.4 0.3 0.3 0.8 0.6 1.4 0.6 0.5 0 1-0.2 1.4-0.6l0 0c0.3-0.3 0.6-0.8 0.6-1.4C17.3 6.2 17.1 5.7 16.8 5.3M15.4 3.8c0.8 0 1.5 0.3 2 0.8v0c0.5 0.5 0.8 1.2 0.8 2 0 0.8-0.3 1.5-0.8 2l0 0c-0.5 0.5-1.2 0.8-2 0.8 -0.8 0-1.5-0.3-2-0.8 -0.5-0.5-0.8-1.2-0.8-2 0-0.8 0.3-1.5 0.8-2v0C13.9 4.1 14.6 3.8 15.4 3.8z"/>
  <path class="st0" d="M22.1 30.1c0 0.3-0.2 0.5-0.5 0.5 -0.3 0-0.5-0.2-0.5-0.5l0-17.2c0-0.3 0.2-0.5 0.5-0.5 0.3 0 0.5 0.2 0.5 0.5L22.1 30.1z"/>
  <path class="st0" d="M9.7 24.2c0 0.3-0.2 0.5-0.5 0.5 -0.3 0-0.5-0.2-0.5-0.5l0-11.3c0-0.3 0.2-0.5 0.5-0.5s0.5 0.2 0.5 0.5L9.7 24.2z"/>
</svg>