<?xml version="1.0" encoding="utf-8"?>
<!-- Generator: Adobe Illustrator 19.0.0, SVG Export Plug-In . SVG Version: 6.00 Build 0)  -->
<svg version="1.1" id="Layer_1" xmlns="http://www.w3.org/2000/svg" xmlns:xlink="http://www.w3.org/1999/xlink" x="0px" y="0px"
	 viewBox="0 0 30.7 30.7" style="enable-background:new 0 0 30.7 30.7;" xml:space="preserve">
<style type="text/css">
	.st0{fill:#efefef;}
</style>
<path class="st0" d="M23,13.6l-7.4,9.1c0,0,0,0,0,0c-0.1,0.1-0.3,0.1-0.3,0l-7.4-9.1c-0.1-0.1-0.1-0.2,0-0.3l2.4-3.3
	c0-0.1,0.1-0.1,0.2-0.1h10.1v0c0.1,0,0.1,0,0.2,0.1l2.4,3.4 M15.4,22.1l7.1-8.8l-2.2-3.1h-9.8l-2.2,3.1L15.4,22.1z"/>
<path class="st0" d="M17.1,13.2c0.1,0,0.2,0.1,0.2,0.2s-0.1,0.2-0.2,0.2H7.9c-0.1,0-0.2-0.1-0.2-0.2s0.1-0.2,0.2-0.2H17.1z"/>
<path class="st0" d="M22.8,13.2c0.1,0,0.2,0.1,0.2,0.2s-0.1,0.2-0.2,0.2h-0.9c-0.1,0-0.2-0.1-0.2-0.2s0.1-0.2,0.2-0.2H22.8z"/>
<path class="st0" d="M10.1,10.1c0-0.1,0-0.3,0.1-0.3c0.1,0,0.3,0,0.3,0.1l5,12.5c0,0.1,0,0.3-0.1,0.3c-0.1,0-0.3,0-0.3-0.1
	L10.1,10.1z"/>
<path class="st0" d="M18,15.5c0-0.1,0.2-0.2,0.3-0.1c0.1,0,0.2,0.2,0.1,0.3l-2.8,7c0,0.1-0.2,0.2-0.3,0.1c-0.1,0-0.2-0.2-0.1-0.3
	L18,15.5z"/>
<path class="st0" d="M20.2,10c0-0.1,0.2-0.2,0.3-0.1c0.1,0,0.2,0.2,0.1,0.3l-0.4,1c0,0.1-0.2,0.2-0.3,0.1c-0.1,0-0.2-0.2-0.1-0.3
	L20.2,10z"/>
<path class="st0" d="M11.9,13.6c-0.1,0.1-0.2,0.1-0.3,0c-0.1-0.1-0.1-0.2,0-0.3l3.6-3.4c0.1-0.1,0.2-0.1,0.3,0
	c0.1,0.1,0.1,0.2,0,0.3L11.9,13.6z"/>
<path class="st0" d="M17.9,12.1c0.1,0.1,0.1,0.2,0,0.3c-0.1,0.1-0.2,0.1-0.3,0l-2.4-2.2c-0.1-0.1-0.1-0.2,0-0.3
	c0.1-0.1,0.2-0.1,0.3,0L17.9,12.1z"/>
<path class="st0" d="M19.7,13l-0.3-0.5L19.2,13c0,0-0.1,0.1-0.1,0.1l-0.5,0.3l0.5,0.3c0,0,0.1,0.1,0.1,0.1l0.3,0.5l0.3-0.5
	c0,0,0.1-0.1,0.1-0.1l0.5-0.3l-0.5-0.3C19.8,13.1,19.8,13.1,19.7,13 M19.7,11.9l0.4,0.9l0.9,0.4c0.1,0.1,0.2,0.2,0.1,0.3
	c0,0-0.1,0.1-0.1,0.1l-0.9,0.4L19.7,15c-0.1,0.1-0.2,0.2-0.3,0.1c0,0-0.1-0.1-0.1-0.1l-0.4-0.9l-0.9-0.4c-0.1-0.1-0.2-0.2-0.1-0.3
	c0,0,0.1-0.1,0.1-0.1l0.9-0.4l0.4-0.9c0.1-0.1,0.2-0.2,0.3-0.1C19.6,11.8,19.7,11.8,19.7,11.9z"/>
</svg>
