<svg xmlns="http://www.w3.org/2000/svg" xmlns:xlink="http://www.w3.org/1999/xlink" version="1.1" id="Layer_1" x="0px" y="0px" viewBox="0 0 30.7 30.7" xml:space="preserve" enable-background="new 0 0 30.7 30.7">
  <style type="text/css">
    
	.st0{fill:#ffffff;}

  </style>
  <path class="st0" d="M3.6 17.8c0.3 0 0.5 0.2 0.5 0.5 0 0.3-0.2 0.5-0.5 0.5H0.5c-0.3 0-0.5-0.2-0.5-0.5v0 -5.9c0-0.3 0.2-0.5 0.5-0.5h0 5.3c0.3 0 0.5 0.2 0.5 0.5v0 5.3c0 0.3-0.2 0.5-0.5 0.5 -0.3 0-0.5-0.2-0.5-0.5v-4.9H1v5H3.6z"/>
  <path class="st0" d="M3.1 18.4c-0.1-0.3 0.1-0.5 0.3-0.6C3.7 17.7 4 17.9 4 18.1l1.8 6.6h1.6V19c0-0.3 0.2-0.5 0.5-0.5 0.3 0 0.5 0.2 0.5 0.5v6.2 0c0 0.3-0.2 0.5-0.5 0.5H5.4v0c-0.2 0-0.4-0.1-0.5-0.4L3.1 18.4z"/>
  <path class="st0" d="M3.6 15.7c0.3 0 0.5 0.2 0.5 0.5 0 0.3-0.2 0.5-0.5 0.5H2.3c-0.3 0-0.5-0.2-0.5-0.5 0-0.3 0.2-0.5 0.5-0.5H3.6z"/>
  <path class="st0" d="M21.4 22.6c0 0.3-0.2 0.5-0.5 0.5 -0.3 0-0.5-0.2-0.5-0.5V5.4c0-0.3 0.2-0.5 0.5-0.5 0.3 0 0.5 0.2 0.5 0.5V22.6z"/>
  <path class="st0" d="M8.1 12c-0.2 0.1-0.5 0-0.6-0.2 -0.1-0.2 0-0.5 0.2-0.6l16.1-7.8c0.2-0.1 0.5 0 0.6 0.2s0 0.5-0.2 0.6L8.1 12z"/>
  <path class="st0" d="M7.7 19.4c-0.2-0.1-0.3-0.4-0.2-0.6 0.1-0.2 0.4-0.3 0.6-0.2l16.1 7.8c0.2 0.1 0.3 0.4 0.2 0.6s-0.4 0.3-0.6 0.2L7.7 19.4z"/>
  <path class="st0" d="M7.7 16.9c-0.2-0.1-0.3-0.4-0.2-0.6 0.1-0.2 0.4-0.3 0.6-0.2l16.1 7.8c0.2 0.1 0.3 0.4 0.2 0.6s-0.4 0.3-0.6 0.2L7.7 16.9z"/>
  <path class="st0" d="M23.6 3.8c0-0.3 0.2-0.5 0.5-0.5 0.3 0 0.5 0.2 0.5 0.5v20.5c0 0.3-0.2 0.5-0.5 0.5 -0.3 0-0.5-0.2-0.5-0.5V3.8z"/>
  <path class="st0" d="M27.9 17.3c-0.1 0.2-0.4 0.4-0.6 0.3 -0.2-0.1-0.4-0.4-0.3-0.6 0.1-0.3 0.2-0.5 0.2-0.8 0.1-0.3 0.1-0.6 0.1-0.9 0-0.6-0.1-1.1-0.3-1.7 -0.1-0.2 0-0.5 0.3-0.6s0.5 0 0.6 0.3c0.3 0.6 0.4 1.3 0.4 2 0 0.3 0 0.7-0.1 1C28.1 16.6 28 17 27.9 17.3"/>
  <path class="st0" d="M29.7 19.2c-0.1 0.2-0.4 0.3-0.7 0.2 -0.2-0.1-0.3-0.4-0.2-0.7 0.1-0.1 0.2-0.3 0.2-0.4 0.1-0.1 0.1-0.3 0.2-0.4 0.1-0.2 0.2-0.4 0.2-0.6l0 0c0.1-0.2 0.1-0.4 0.2-0.6 0-0.2 0.1-0.4 0.1-0.7 0-0.2 0-0.4 0-0.7 0-0.4 0-0.9-0.1-1.3 0-0.2-0.1-0.4-0.2-0.6h0c-0.1-0.2-0.1-0.4-0.2-0.6l0 0c-0.1-0.1-0.1-0.3-0.2-0.4l0 0c-0.1-0.1-0.1-0.3-0.2-0.4 -0.1-0.2-0.1-0.5 0.2-0.7 0.2-0.1 0.5-0.1 0.7 0.2 0.1 0.1 0.2 0.3 0.2 0.4l0 0c0.1 0.1 0.1 0.3 0.2 0.5l0 0c0.1 0.2 0.2 0.5 0.2 0.7h0l0 0c0.1 0.2 0.1 0.5 0.2 0.7 0.1 0.5 0.1 1 0.1 1.5 0 0.2 0 0.5 0 0.8 0 0.3-0.1 0.5-0.1 0.7 0 0.2-0.1 0.5-0.2 0.7l0 0c-0.1 0.2-0.2 0.5-0.2 0.7 -0.1 0.2-0.1 0.3-0.2 0.5C29.9 18.9 29.8 19 29.7 19.2"/>
</svg>