<svg xmlns="http://www.w3.org/2000/svg" xmlns:xlink="http://www.w3.org/1999/xlink" version="1.1" id="Layer_1" x="0px" y="0px" viewBox="0 0 30.7 30.7" xml:space="preserve" enable-background="new 0 0 30.7 30.7">
  <style type="text/css">
    
	.st0{fill:#ffffff;}

  </style>
  <path class="st0" d="M22.4 15.6c-0.2 0.2-0.5 0.1-0.6 0M0.9 0.8c0.2-0.2 0.5-0.1 0.6 0M3.4 17.5l2.3-1.8c0.1-0.1 0.2-0.1 0.3-0.1h14.3c0.5 0 1-0.2 1.4-0.6l0 0c0.4-0.4 0.6-0.9 0.6-1.4V3c0-0.5-0.2-1-0.6-1.4C21.4 1.2 20.9 1 20.3 1H3c-0.5 0-1 0.2-1.4 0.6l0 0C1.2 1.9 1 2.4 1 3v10.5c0 0.5 0.2 1 0.6 1.4l0 0c0.4 0.4 0.9 0.6 1.4 0.6h0c0.3 0 0.5 0.2 0.5 0.5V17.5zM6.2 16.5l-3 2.4C3.1 19 2.8 19 2.6 18.8c-0.1-0.1-0.1-0.2-0.1-0.3h0v-2c-0.6-0.1-1.2-0.4-1.6-0.8l0 0 0 0C0.3 15.1 0 14.3 0 13.5V3c0-0.8 0.3-1.6 0.9-2.1l0 0C1.4 0.3 2.2 0 3 0h17.4c0.8 0 1.6 0.3 2.1 0.9 0.5 0.5 0.9 1.3 0.9 2.1v10.5c0 0.8-0.3 1.6-0.9 2.1l0 0c-0.5 0.5-1.3 0.8-2.1 0.8H6.2z"/>
  <path class="st0" d="M4.2 4.7c-0.3 0-0.5-0.2-0.5-0.5 0-0.3 0.2-0.5 0.5-0.5h14.9c0.3 0 0.5 0.2 0.5 0.5 0 0.3-0.2 0.5-0.5 0.5H4.2z"/>
  <path class="st0" d="M4.2 7.6c-0.3 0-0.5-0.2-0.5-0.5 0-0.3 0.2-0.5 0.5-0.5h14.9c0.3 0 0.5 0.2 0.5 0.5 0 0.3-0.2 0.5-0.5 0.5H4.2z"/>
  <path class="st0" d="M24.7 16.5c-0.3 0-0.5-0.2-0.5-0.5 0-0.3 0.2-0.5 0.5-0.5h1.9c0.3 0 0.5 0.2 0.5 0.5 0 0.3-0.2 0.5-0.5 0.5H24.7z"/>
  <path class="st0" d="M11.6 19.4c-0.3 0-0.5-0.2-0.5-0.5s0.2-0.5 0.5-0.5h14.9c0.3 0 0.5 0.2 0.5 0.5s-0.2 0.5-0.5 0.5H11.6z"/>
  <path class="st0" d="M11.6 22.4c-0.3 0-0.5-0.2-0.5-0.5 0-0.3 0.2-0.5 0.5-0.5h14.9c0.3 0 0.5 0.2 0.5 0.5 0 0.3-0.2 0.5-0.5 0.5H11.6z"/>
  <path class="st0" d="M11.6 25.3c-0.3 0-0.5-0.2-0.5-0.5 0-0.3 0.2-0.5 0.5-0.5h10.5c0.3 0 0.5 0.2 0.5 0.5 0 0.3-0.2 0.5-0.5 0.5H11.6z"/>
  <path class="st0" d="M7.4 18.5c0-0.3 0.2-0.5 0.5-0.5 0.3 0 0.5 0.2 0.5 0.5v6.8c0 0.5 0.2 1 0.6 1.4l0 0c0.4 0.3 0.9 0.6 1.4 0.6h14.3c0.1 0 0.3 0.1 0.3 0.1l2.3 1.8 0-1.5c0-0.3 0.2-0.5 0.5-0.5v0c0.5 0 1-0.2 1.4-0.6l0 0c0.4-0.4 0.6-0.9 0.6-1.4v-9.9c0-0.5-0.2-1-0.6-1.4l0 0c-0.4-0.3-0.9-0.6-1.4-0.6h-2.5c-0.3 0-0.5-0.2-0.5-0.5 0-0.3 0.2-0.5 0.5-0.5h2.5c0.8 0 1.5 0.3 2.1 0.8l0 0c0.5 0.5 0.9 1.3 0.9 2.1v9.9c0 0.8-0.3 1.6-0.9 2.1l0 0 0 0c-0.4 0.4-1 0.7-1.6 0.8l0 2h0c0 0.1 0 0.2-0.1 0.3 -0.2 0.2-0.5 0.2-0.7 0.1l-3-2.4H10.4c-0.8 0-1.5-0.3-2.1-0.8l0 0c-0.5-0.5-0.9-1.3-0.9-2.1V18.5z"/>
  <path class="st0" d="M4.2 10.6c-0.3 0-0.5-0.2-0.5-0.5 0-0.3 0.2-0.5 0.5-0.5h10.5c0.3 0 0.5 0.2 0.5 0.5 0 0.3-0.2 0.5-0.5 0.5H4.2z"/>
</svg>